<?xml version="1.0"?>
<svg xmlns="http://www.w3.org/2000/svg" xmlns:xlink="http://www.w3.org/1999/xlink" width="45" height="45" version="1.1" x="0px" y="0px" viewBox="0 0 128 125" style="enable-background:new 0 0 128 128; fill:#141D64;" xml:space="preserve">
    <g>
        <path d="M81.213,1.283L64.146,9.654L46.94,1.28C41.621,3.887,4,22.264,4,22.264v75.761l59,28.597V27.26l-15-7.006v79.074   c0,0.541-0.087,1.153-0.666,1.37c-0.47,0.177-1.008-0.025-1.474-0.117c-0.411-0.08-0.701-0.129-1.091-0.311   c-0.451-0.211-0.904-0.421-1.355-0.635c-2.594-1.229-5.188-2.456-7.781-3.685c-2.876-1.361-5.751-2.723-8.627-4.084   c-2.053-0.972-4.365-1.81-6.177-3.151c-0.181-0.134-0.327-0.321-0.462-0.5c-0.248-0.327-0.288-0.614-0.331-1.025   C19.973,86.58,20,85.968,20,85.356c0-1.461,0-2.922,0-4.383c0-2.359,0-4.719,0-7.078c0-2.92,0-5.841,0-8.762   c0-3.145,0-6.29,0-9.435c0-3.033,0-6.065,0-9.099c0-2.584,0-5.167,0-7.751c0-1.798,0-6.743,0-7.418L5.479,22.963   c0.033-0.059,15.804,6.109,15.806,6.109L46.471,16.75c0.011-0.006,0.022,0.004,0.033-0.001c0.028-0.014,0.057-0.02,0.087-0.03   c0.03-0.012,0.062-0.019,0.094-0.028c0.027-0.01,0.056-0.017,0.084-0.023c0.026-0.007,0.053-0.009,0.079-0.015   c0.034-0.006,0.066-0.008,0.1-0.012s0.065-0.007,0.099-0.007c0.013,0,0.024-0.004,0.038-0.004c0.012,0,0.023,0.003,0.036,0.003   c0.032,0.002,0.064,0.005,0.098,0.008c0.033,0.004,0.065,0.008,0.099,0.013c0.027,0.004,0.055,0.009,0.081,0.016   c0.028,0.006,0.057,0.016,0.084,0.024c0.032,0.008,0.062,0.019,0.092,0.03s0.061,0.022,0.089,0.036   c0.011,0.005,0.022,0.007,0.034,0.013l16.463,8.069l16.463-8.069c0.01-0.005,0.021-0.007,0.032-0.012   c0.028-0.014,0.058-0.024,0.086-0.036c0.033-0.012,0.064-0.022,0.096-0.03c0.028-0.01,0.056-0.018,0.083-0.024   c0.026-0.007,0.053-0.011,0.08-0.016c0.033-0.005,0.066-0.009,0.101-0.012c0.032-0.004,0.064-0.007,0.099-0.008   c0.012,0,0.023-0.004,0.036-0.004s0.023,0.004,0.036,0.004c0.032,0.001,0.065,0.004,0.098,0.008   c0.034,0.003,0.067,0.007,0.101,0.012c0.026,0.005,0.054,0.009,0.08,0.016c0.028,0.007,0.056,0.016,0.084,0.024   c0.031,0.008,0.063,0.019,0.094,0.03c0.029,0.012,0.058,0.022,0.087,0.036c0.014,0.006,0.026,0.016,0.04,0.022   c0.039,0.019,0.077,0.038,0.113,0.061c-0.037-0.022-0.073-0.042-0.112-0.061c-0.014-0.007-0.026-0.017-0.039-0.022   c0.011,0.005,0.022,0.007,0.034,0.012L107.084,29.1L124,22.298v-0.034L81.213,1.283z"/>
        <path d="M108,33.114c0,1.822,0,3.645,0,5.467c0,2.706,0,5.412,0,8.118c0,3.198,0,6.396,0,9.596c0,3.299,0,6.598,0,9.896   c0,3.008,0,6.015,0,9.022c0,2.325,0,4.65,0,6.975c0,1.127,0.07,2.313,0.041,3.463c-0.005,0.193-0.004,0.401-0.007,0.617   c-0.009,0.805-0.053,1.713-0.535,2.287c-1.063,1.266-2.841,1.717-4.281,2.396c-2.905,1.371-5.812,2.741-8.717,4.111   c-2.902,1.369-5.805,2.738-8.707,4.106c-1.318,0.622-2.638,1.244-3.956,1.866c-0.194,0.096-0.412-0.09-0.622-0.09   c-0.255,0-0.415-0.188-0.639-0.328C80.169,100.363,80,99.801,80,99.32V20.254L65,27.26v99.46l59-28.695V22.315   c0,0-15.999,9.112-16,9.113C107.871,31.502,108,32.968,108,33.114z"/>
        <polygon points="83,97.089 104.383,86.517 90.729,77.181 106,84.492 106,31.587 106,31.502 106,31.418 106,31.334 83,20.254    83,35.408 90,39.002 90.211,76.932 83,80.478  "/>
        <polygon points="46,35.337 46,20.254 23,31.485 23,31.495 23,31.505 23,31.515 23,84.494 38.072,76.823 24,86.564 46,97.096    46,80.557 38.93,76.431 39,39.006  "/>
    </g>
</svg>
