<svg width="33px" height="33px" viewBox="0 0 64 64" fill="none" xmlns="http://www.w3.org/2000/svg"><g id="SVGRepo_bgCarrier" stroke-width="0"></g><g id="SVGRepo_tracerCarrier" stroke-linecap="round" stroke-linejoin="round"></g><g id="SVGRepo_iconCarrier"> <path d="M55.67 34.241H47.67C46.0787 34.241 44.5526 34.8731 43.4274 35.9983C42.3021 37.1235 41.67 38.6497 41.67 40.241V50.241C41.67 51.8323 42.3021 53.3584 43.4274 54.4836C44.5526 55.6088 46.0787 56.241 47.67 56.241H55.67C56.1999 56.2394 56.7077 56.0282 57.0825 55.6534C57.4572 55.2787 57.6684 54.7709 57.67 54.241V36.241C57.6684 35.711 57.4572 35.2032 57.0825 34.8285C56.7077 34.4538 56.1999 34.2425 55.67 34.241Z" fill="#FD4B6B"></path> <path d="M15.67 34.241H7.67C7.13957 34.241 6.63086 34.4517 6.25578 34.8268C5.88071 35.2018 5.67 35.7105 5.67 36.241V54.241C5.67 54.7714 5.88071 55.2801 6.25578 55.6552C6.63086 56.0303 7.13957 56.241 7.67 56.241H15.67C17.2613 56.241 18.7874 55.6088 19.9126 54.4836C21.0379 53.3584 21.67 51.8323 21.67 50.241V40.241C21.67 38.6497 21.0379 37.1235 19.9126 35.9983C18.7874 34.8731 17.2613 34.241 15.67 34.241Z" fill="#FD4B6B"></path> <path d="M7.67 34.241C7.13957 34.241 6.63086 34.4517 6.25578 34.8268C5.88071 35.2018 5.67 35.7105 5.67 36.241V26.121C5.67529 21.117 7.66475 16.3194 11.2021 12.7802C14.7395 9.24091 19.5361 7.24891 24.54 7.24097H38.79C43.7957 7.24626 48.5948 9.23709 52.1343 12.7766C55.6739 16.3162 57.6647 21.1153 57.67 26.121V36.241C57.6684 35.711 57.4572 35.2032 57.0825 34.8285C56.7077 34.4538 56.1999 34.2425 55.67 34.241H53.67V26.121C53.6647 22.1762 52.0953 18.3945 49.3059 15.6051C46.5165 12.8157 42.7348 11.2463 38.79 11.241H24.54C20.596 11.2457 16.815 12.8153 14.0271 15.6051C11.2391 18.3949 9.67211 22.1769 9.67 26.121V34.241H7.67Z" fill="#FD4B6B"></path> </g></svg>